#!OML:ASF G:\JayActor3\Patient Classification 1\Patient 1\Session 6\male.ASF
:FULLY-SPECIFIED
:DEGREES
980
root 6.23305 16.4577 -0.431075 177.784 -43.4886 -177.939
lowerback -0.761916 -1.95463 5.11932
upperback 4.18212 -3.11963 2.99177
thorax 4.66664 -1.50988 0.0818188
lowerneck -10.7731 0.860093 1.6445
upperneck 31.5903 -0.00270249 -3.48908
head 12.1699 -0.92475 -1.75483
rclavicle 5.78463e-014 -1.98785e-014
rhumerus -41.3271 23.945 -93.9612
rradius 93.7066
rwrist -54.6627
rhand -19.2818 -13.2869
rfingers 7.12502
rthumb 7.03318 -43.15
lclavicle 5.78463e-014 -1.98785e-014
lhumerus -29.8823 2.64887 84.0279
lradius 31.2101
lwrist 17.3507
lhand -15.827 10.3922
lfingers 7.12502
lthumb 10.3671 40.1167
rfemur -12.9315 3.33038 23.6318
rtibia 35.7063
rfoot -21.3706 -3.45994
rtoes 5.91429
lfemur -2.07261 4.56585 -13.6697
ltibia 20.9129
lfoot -17.0657 11.559
ltoes -2.7897
981
root 6.22318 16.4588 -0.417414 177.806 -43.3804 -177.939
lowerback -0.762799 -1.9617 5.07029
upperback 4.18238 -3.12509 2.96829
thorax 4.66793 -1.51331 0.0844324
lowerneck -10.7879 0.870627 1.61066
upperneck 31.6559 0.000158996 -3.45853
head 12.1999 -0.927765 -1.73961
rclavicle -6.7388e-014 -3.97569e-015
rhumerus -41.3343 23.9351 -93.9951
rradius 93.6659
rwrist -54.6767
rhand -19.3409 -13.3006
rfingers 7.12502
rthumb 6.97606 -43.1656
lclavicle -6.7388e-014 -3.97569e-015
lhumerus -29.6599 2.27469 84.0654
lradius 31.6665
lwrist 17.5608
lhand -15.9191 10.3498
lfingers 7.12502
lthumb 10.2782 40.0786
rfemur -12.9788 3.5125 23.5942
rtibia 35.712
rfoot -21.3623 -3.5905
rtoes 5.81999
lfemur -2.05056 4.44869 -13.7675
ltibia 20.8683
lfoot -17.1514 11.7884
ltoes -2.63878
982
root 6.21345 16.4599 -0.403579 177.826 -43.2824 -177.935
lowerback -0.771359 -1.96812 5.02641
upperback 4.18565 -3.13053 2.94279
thorax 4.67643 -1.5163 0.0817527
lowerneck -10.8062 0.880219 1.5782
upperneck 31.7257 0.00137928 -3.42891
head 12.2323 -0.93155 -1.72535
rclavicle -4.35338e-014 4.69132e-014
rhumerus -41.3297 23.9244 -94.0288
rradius 93.622
rwrist -54.6775
rhand -19.5086 -13.2816
rfingers 7.12502
rthumb 6.81416 -43.1519
lclavicle -4.35338e-014 4.69132e-014
lhumerus -29.4321 1.89838 84.1001
lradius 32.1198
lwrist 17.7577
lhand -16.0074 10.3024
lfingers 7.12502
lthumb 10.193 40.0354
rfemur -13.0321 3.68548 23.5593
rtibia 35.7252
rfoot -21.3558 -3.73019
rtoes 5.70426
lfemur -2.03079 4.33538 -13.8609
ltibia 20.818
lfoot -17.2262 12.0048
ltoes -2.50586
983
root 6.2039 16.4611 -0.389813 177.844 -43.1923 -177.923
lowerback -0.796154 -1.97161 4.98981
upperback 4.19652 -3.13408 2.91547
thorax 4.70181 -1.51767 0.0724472
lowerneck -10.832 0.888161 1.55139
upperneck 31.7956 0.000369358 -3.40182
head 12.2664 -0.935691 -1.71333
rclavicle 3.95581e-014 -5.725e-014
rhumerus -41.3069 23.9089 -94.0599
rradius 93.5786
rwrist -54.6643
rhand -19.8597 -13.1835
rfingers 7.12502
rthumb 6.47523 -43.0645
lclavicle 3.95581e-014 -5.725e-014
lhumerus -29.1908 1.51807 84.132
lradius 32.567
lwrist 17.9451
lhand -16.0955 10.2539
lfingers 7.12502
lthumb 10.108 39.9911
rfemur -13.0896 3.85745 23.5322
rtibia 35.7399
rfoot -21.3495 -3.88171
rtoes 5.57255
lfemur -2.02096 4.2361 -13.9433
ltibia 20.7732
lfoot -17.2908 12.201
ltoes -2.40761
984
root 6.19464 16.4622 -0.376051 177.859 -43.1138 -177.905
lowerback -0.824844 -1.97301 4.95734
upperback 4.20707 -3.13499 2.88644
thorax 4.72888 -1.51745 0.0590509
lowerneck -10.8578 0.893988 1.529
upperneck 31.8674 -0.00447574 -3.37587
head 12.3011 -0.941156 -1.70307
rclavicle -8.8658e-014 2.38542e-015
rhumerus -41.2827 23.8861 -94.0924
rradius 93.542
rwrist -54.6425
rhand -20.1738 -13.0939
rfingers 7.12502
rthumb 6.17201 -42.984
lclavicle -8.8658e-014 2.38542e-015
lhumerus -28.9491 1.13154 84.1622
lradius 33.0108
lwrist 18.124
lhand -16.1752 10.2187
lfingers 7.12502
lthumb 10.0312 39.9596
rfemur -13.1505 4.02132 23.5098
rtibia 35.7546
rfoot -21.3424 -4.04104
rtoes 5.43722
lfemur -2.02368 4.1617 -14.0156
ltibia 20.7372
lfoot -17.3388 12.3693
ltoes -2.36102
985
root 6.18586 16.4634 -0.362296 177.873 -43.0444 -177.88
lowerback -0.848899 -1.97451 4.9249
upperback 4.21112 -3.13519 2.85971
thorax 4.74662 -1.5171 0.0483504
lowerneck -10.8798 0.899873 1.50901
upperneck 31.9429 -0.00928027 -3.3542
head 12.3367 -0.947147 -1.69497
rclavicle 5.9039e-014 -8.74653e-015
rhumerus -41.2669 23.8642 -94.1285
rradius 93.5121
rwrist -54.6193
rhand -20.4358 -13.0169
rfingers 7.12502
rthumb 5.91906 -42.9142
lclavicle 5.9039e-014 -8.74653e-015
lhumerus -28.717 0.757089 84.1895
lradius 33.452
lwrist 18.2978
lhand -16.2334 10.2158
lfingers 7.12502
lthumb 9.97501 39.9594
rfemur -13.2163 4.17984 23.4942
rtibia 35.7702
rfoot -21.3352 -4.20654
rtoes 5.29036
lfemur -2.03855 4.11687 -14.0751
ltibia 20.7071
lfoot -17.3679 12.5073
ltoes -2.3679
986
root 6.17734 16.4645 -0.348593 177.898 -42.9841 -177.876
lowerback -0.869543 -1.97508 4.87437
upperback 4.21609 -3.13274 2.8284
thorax 4.76399 -1.51592 0.0431857
lowerneck -10.8998 0.90387 1.4861
upperneck 32.0141 -0.015944 -3.33113
head 12.37 -0.953886 -1.68588
rclavicle -7.28546e-014 2.06736e-014
rhumerus -41.248 23.8397 -94.1622
rradius 93.4884
rwrist -54.6024
rhand -20.5446 -12.9758
rfingers 7.12502
rthumb 5.81407 -42.876
lclavicle -7.28546e-014 2.06736e-014
lhumerus -28.4867 0.394759 84.2174
lradius 33.8849
lwrist 18.4579
lhand -16.2956 10.2117
lfingers 7.12502
lthumb 9.91494 39.9582
rfemur -13.2787 4.32669 23.4601
rtibia 35.7884
rfoot -21.3296 -4.36579
rtoes 5.15512
lfemur -2.05371 4.0957 -14.1468
ltibia 20.6802
lfoot -17.3856 12.6131
ltoes -2.39483
